<svg xmlns="http://www.w3.org/2000/svg" xmlns:xlink="http://www.w3.org/1999/xlink" width="50" zoomAndPan="magnify" viewBox="0 0 37.5 37.499999" height="50" preserveAspectRatio="xMidYMid meet" version="1.0"><defs><clipPath id="dad7694f9f"><path d="M 0 0 L 37.007812 0 L 37.007812 37.007812 L 0 37.007812 Z M 0 0 " clip-rule="nonzero"/></clipPath></defs><g clip-path="url(#dad7694f9f)"><path fill="#ffffff" d="M 18.75 3.410156 C 10.277344 3.410156 3.410156 10.277344 3.410156 18.75 C 3.410156 27.222656 10.277344 34.089844 18.75 34.089844 C 27.222656 34.089844 34.089844 27.222656 34.089844 18.75 C 34.089844 10.277344 27.222656 3.410156 18.75 3.410156 Z M 0 18.75 C 0 8.394531 8.394531 0 18.75 0 C 29.105469 0 37.5 8.394531 37.5 18.75 C 37.5 29.105469 29.105469 37.5 18.75 37.5 C 8.394531 37.5 0 29.105469 0 18.75 Z M 0 18.75 " fill-opacity="1" fill-rule="evenodd"/></g><path fill="#ffffff" d="M 17.046875 13.066406 L 20.453125 13.066406 L 20.453125 30.113281 L 17.046875 30.113281 Z M 17.046875 13.066406 " fill-opacity="1" fill-rule="evenodd"/><path fill="#ffffff" d="M 17.046875 7.386719 L 20.453125 7.386719 L 20.453125 11.175781 L 17.046875 11.175781 Z M 17.046875 7.386719 " fill-opacity="1" fill-rule="evenodd"/></svg>