<svg xmlns="http://www.w3.org/2000/svg" xmlns:xlink="http://www.w3.org/1999/xlink" width="50" zoomAndPan="magnify" viewBox="0 0 37.5 37.499999" height="50" preserveAspectRatio="xMidYMid meet" version="1.0"><defs><clipPath id="8bc56e9c72"><path d="M 2 25 L 15 25 L 15 37.007812 L 2 37.007812 Z M 2 25 " clip-rule="nonzero"/></clipPath></defs><g clip-path="url(#8bc56e9c72)"><path fill="#000000" d="M 7.523438 26.484375 C 7.464844 26.542969 7.414062 26.609375 7.378906 26.683594 L 2.351562 36.414062 C 2.1875 36.730469 2.246094 37.121094 2.5 37.375 C 2.65625 37.53125 2.863281 37.617188 3.074219 37.617188 C 3.203125 37.617188 3.332031 37.585938 3.453125 37.523438 L 13.085938 32.449219 C 13.160156 32.414062 13.226562 32.359375 13.289062 32.300781 L 14.636719 30.941406 L 8.871094 25.125 Z M 7.523438 26.484375 " fill-opacity="1" fill-rule="nonzero"/></g><path fill="#000000" d="M 35.898438 3.660156 C 34.359375 2.101562 31.375 2.402344 29.507812 4.289062 L 27.3125 6.5 L 25.585938 4.753906 C 25.433594 4.601562 25.226562 4.515625 25.007812 4.515625 C 24.792969 4.515625 24.585938 4.601562 24.433594 4.753906 L 14.632812 14.648438 C 14.316406 14.96875 14.316406 15.492188 14.632812 15.8125 C 14.792969 15.972656 15 16.054688 15.210938 16.054688 C 15.417969 16.054688 15.628906 15.972656 15.785156 15.8125 L 25.007812 6.503906 L 26.160156 7.667969 L 10.019531 23.960938 L 15.785156 29.777344 L 31.925781 13.488281 C 32.246094 13.808594 32.609375 13.808594 32.929688 13.488281 C 33.25 13.167969 32.777344 12.644531 32.777344 12.324219 L 35.121094 10.109375 C 37.054688 8.15625 37.488281 5.265625 35.898438 3.660156 Z M 35.898438 3.660156 " fill-opacity="1" fill-rule="nonzero"/></svg>