<svg xmlns="http://www.w3.org/2000/svg" xmlns:xlink="http://www.w3.org/1999/xlink" width="50" zoomAndPan="magnify" viewBox="0 0 37.5 37.499999" height="50" preserveAspectRatio="xMidYMid meet" version="1.0"><defs><clipPath id="5916b33071"><path d="M 0 2.625 L 7 2.625 L 7 9 L 0 9 Z M 0 2.625 " clip-rule="nonzero"/></clipPath><clipPath id="eeac76d080"><path d="M 31 2.625 L 37.007812 2.625 L 37.007812 9 L 31 9 Z M 31 2.625 " clip-rule="nonzero"/></clipPath><clipPath id="61e2cc4837"><path d="M 31 28 L 37.007812 28 L 37.007812 34.875 L 31 34.875 Z M 31 28 " clip-rule="nonzero"/></clipPath><clipPath id="e614a5aa14"><path d="M 0 28 L 7 28 L 7 34.875 L 0 34.875 Z M 0 28 " clip-rule="nonzero"/></clipPath></defs><path stroke-linecap="round" transform="matrix(0.520161, 0, 0, 0.520161, -7.258063, -7.258064)" fill="none" stroke-linejoin="round" d="M 25.000244 30.001699 L 74.999766 30.001699 L 74.999766 69.998313 L 25.000244 69.998313 Z M 25.000244 30.001699 " stroke="#000000" stroke-width="2" stroke-opacity="1" stroke-miterlimit="10"/><g clip-path="url(#5916b33071)"><path stroke-linecap="round" transform="matrix(0.520161, 0, 0, 0.520161, -7.258063, -7.258064)" fill="none" stroke-linejoin="round" d="M 25.000244 19.99879 L 14.997335 19.99879 L 14.997335 30.001699 L 14.997335 19.99879 Z M 25.000244 19.99879 " stroke="#000000" stroke-width="2" stroke-opacity="1" stroke-miterlimit="10"/></g><g clip-path="url(#eeac76d080)"><path stroke-linecap="round" transform="matrix(0.520161, 0, 0, 0.520161, -7.258063, -7.258064)" fill="none" stroke-linejoin="round" d="M 85.002675 30.001699 L 85.002675 19.99879 L 74.999766 19.99879 L 85.002675 19.99879 Z M 85.002675 30.001699 " stroke="#000000" stroke-width="2" stroke-opacity="1" stroke-miterlimit="10"/></g><g clip-path="url(#61e2cc4837)"><path stroke-linecap="round" transform="matrix(0.520161, 0, 0, 0.520161, -7.258063, -7.258064)" fill="none" stroke-linejoin="round" d="M 74.999766 80.001221 L 85.002675 80.001221 L 85.002675 69.998313 L 85.002675 80.001221 Z M 74.999766 80.001221 " stroke="#000000" stroke-width="2" stroke-opacity="1" stroke-miterlimit="10"/></g><g clip-path="url(#e614a5aa14)"><path stroke-linecap="round" transform="matrix(0.520161, 0, 0, 0.520161, -7.258063, -7.258064)" fill="none" stroke-linejoin="round" d="M 14.997335 69.998313 L 14.997335 80.001221 L 25.000244 80.001221 L 14.997335 80.001221 Z M 14.997335 69.998313 " stroke="#000000" stroke-width="2" stroke-opacity="1" stroke-miterlimit="10"/></g></svg>